<svg width="24" height="24" viewBox="0 0 24 24" fill="none" xmlns="http://www.w3.org/2000/svg">
<path d="M23.5 12C23.5 18.3513 18.3513 23.5 12 23.5C5.64871 23.5 0.499994 18.3513 0.499994 12C0.499995 5.64873 5.64871 0.499995 12 0.499995C18.3513 0.499995 23.5 5.64873 23.5 12Z" fill="#F8F8F8" stroke="#97559F"/>
<path d="M11.4531 17.0291V6.96519C11.4531 6.66155 11.6996 6.41504 12.0033 6.41504C12.3069 6.41504 12.5534 6.66157 12.5534 6.96519V17.0291C12.5534 17.3327 12.3069 17.5792 12.0033 17.5792C11.6996 17.5792 11.4531 17.3327 11.4531 17.0291Z" fill="#97559F" stroke="#97559F"/>
<path d="M6.97152 11.4473H17.0354C17.3391 11.4473 17.5856 11.6938 17.5856 11.9974C17.5856 12.301 17.3391 12.5476 17.0354 12.5476H6.97152C6.6679 12.5476 6.42139 12.3011 6.42139 11.9974C6.42139 11.6938 6.66791 11.4473 6.97152 11.4473Z" fill="#97559F" stroke="#97559F"/>
</svg>
