<svg width="24" height="25" viewBox="0 0 24 25" fill="none" xmlns="http://www.w3.org/2000/svg">
<path d="M5.20703 13.5847H16.377L11.497 18.4647C11.107 18.8547 11.107 19.4947 11.497 19.8847C11.887 20.2747 12.517 20.2747 12.907 19.8847L19.497 13.2947C19.887 12.9047 19.887 12.2747 19.497 11.8847L12.917 5.28467C12.7302 5.09742 12.4765 4.99219 12.212 4.99219C11.9475 4.99219 11.6939 5.09742 11.507 5.28467C11.117 5.67467 11.117 6.30467 11.507 6.69467L16.377 11.5847H5.20703C4.65703 11.5847 4.20703 12.0347 4.20703 12.5847C4.20703 13.1347 4.65703 13.5847 5.20703 13.5847Z" fill="black" fill-opacity="0.54"/>
</svg>
