<svg width="16" height="16" viewBox="0 0 16 16" fill="none" xmlns="http://www.w3.org/2000/svg">
<path d="M7.99991 15.9998C12.4181 15.9998 15.9998 12.4182 15.9998 7.99992C15.9998 3.58169 12.4182 0 7.99992 0C3.58169 0 -1.20767e-06 3.58169 -2.6974e-06 7.99992C-4.18713e-06 12.4182 3.58168 15.9998 7.99991 15.9998Z" fill="#E2CFE7"/>
<path d="M11.9379 9.73107C11.6203 9.16196 10.4979 8.62243 9.86286 8.61504C9.22043 8.60025 9.24258 9.4576 9.24258 9.46499C9.24258 9.46499 8.46722 9.25805 7.60325 8.39331C6.73929 7.52857 6.53991 6.75991 6.53991 6.75991C6.53991 6.75991 7.39649 6.78209 7.38911 6.13908C7.37434 5.49606 6.84267 4.38003 6.27407 4.06222C5.69809 3.74441 4.58306 4.69045 4.67167 5.84344C4.76028 6.99642 5.48395 8.43026 6.52514 9.47238C7.56633 10.5145 8.9989 11.2388 10.1509 11.3275C11.3102 11.4236 12.2554 10.3076 11.9379 9.73107Z" fill="#97559F"/>
</svg>