<svg width="33" height="33" viewBox="0 0 33 33" fill="none" xmlns="http://www.w3.org/2000/svg">
<path d="M16.1753 32.6175C24.9084 32.6175 31.996 25.5326 32.006 16.7928C32.0159 8.0531 24.9443 0.96814 16.2112 0.96814C7.47804 0.96814 0.3904 8.0531 0.380485 16.7928C0.370571 25.5326 7.44214 32.6175 16.1753 32.6175Z" fill="white"/>
<path d="M21.0729 23.5058L9.50712 11.9296C8.83096 11.2529 8.83096 10.1665 9.50712 9.50757C10.1833 8.83081 11.2687 8.83081 11.9271 9.50757L23.4929 21.0837C24.169 21.7605 24.169 22.8468 23.4929 23.5058C22.8345 24.1647 21.7491 24.1647 21.0729 23.5058Z" fill="#7D3486"/>
<path d="M9.50712 21.0729L21.0729 9.50712C21.7491 8.83096 22.8345 8.83096 23.4929 9.50712C24.169 10.1833 24.169 11.2687 23.4929 11.9271L11.9271 23.4929C11.2509 24.169 10.1655 24.169 9.50712 23.4929C8.83096 22.8345 8.83096 21.7491 9.50712 21.0729Z" fill="#7D3486"/>
</svg>
