<svg width="112" height="112" viewBox="0 0 112 112" fill="none" xmlns="http://www.w3.org/2000/svg">
<path d="M35.0293 53.0825L29 59.4237L48.0834 77.5654L83.5397 40.0062L77.1771 34L47.7484 65.1736L35.0293 53.0825Z" fill="#86239E"/>
<path fill-rule="evenodd" clip-rule="evenodd" d="M56 112C86.9279 112 112 86.9279 112 56C112 25.0721 86.9279 0 56 0C25.0721 0 0 25.0721 0 56C0 86.9279 25.0721 112 56 112ZM56 104C82.5097 104 104 82.5097 104 56C104 29.4903 82.5097 8 56 8C29.4903 8 8 29.4903 8 56C8 82.5097 29.4903 104 56 104Z" fill="#E2CFE7"/>
</svg>