<svg width="16" height="16" viewBox="0 0 16 16" fill="none" xmlns="http://www.w3.org/2000/svg">
<circle cx="8" cy="8" r="8" fill="#E2CFE7"/>
<path d="M4.81097 4.66675H11.1891C11.3326 4.66675 11.3864 4.85946 11.2698 4.94618L8.18392 7.26837C8.0673 7.35509 7.92377 7.35509 7.80715 7.26837L4.73023 4.94618C4.61362 4.85946 4.66744 4.66675 4.81097 4.66675Z" fill="#97559F"/>
<path d="M12.6666 6.20729V10.5158C12.6666 10.9654 12.2831 11.3333 11.8143 11.3333H4.18567C3.71687 11.3333 3.33331 10.9654 3.33331 10.5158V6.19911C3.33331 6.0356 3.52083 5.94567 3.65721 6.0356L7.15188 8.39832C7.40759 8.57001 7.70592 8.65994 8.00424 8.65994C8.30257 8.65994 8.60089 8.57001 8.8566 8.39832L12.3513 6.0356C12.4791 5.95385 12.6666 6.04378 12.6666 6.20729Z" fill="#97559F"/>
</svg>