<svg width="12" height="12" viewBox="0 0 12 12" fill="none" xmlns="http://www.w3.org/2000/svg">
<path d="M5.00977 0.916436V7.46093C5.00977 7.96895 5.46217 8.37735 6.01981 8.37735C6.57744 8.37735 7.02988 7.96895 7.02988 7.46093V0.916436C7.02988 0.408416 6.57744 0 6.01981 0C5.46217 0 5.00977 0.408416 5.00977 0.916436Z" fill="#97559F"/>
<path d="M5.44451 1.75329L8.84289 3.9748C9.30582 4.27365 9.93711 4.16407 10.2528 3.72575C10.5684 3.28742 10.4527 2.68971 9.98972 2.39085L6.59135 0.169355C6.12841 -0.129502 5.49712 -0.0199207 5.18148 0.418403C4.86584 0.846764 4.98158 1.44447 5.44451 1.75329Z" fill="#97559F"/>
<path d="M6.59124 1.75329L3.1929 3.9748C2.72997 4.27365 2.09868 4.16407 1.78304 3.72575C1.46741 3.28742 1.58314 2.68971 2.04607 2.39085L5.44444 0.169355C5.90737 -0.129502 6.53863 -0.0199207 6.85427 0.418403C7.16991 0.846764 7.05417 1.44447 6.59124 1.75329Z" fill="#97559F"/>
<path d="M0.0422508 7.86936C0.0422508 9.10463 -0.273396 10.4694 0.820812 11.3859C1.7046 12.1131 2.46211 11.9537 3.5458 11.9537C4.36646 11.9537 5.18713 11.9537 6.00779 11.9537C6.67062 11.9537 6.81792 11.9537 7.48076 11.9537C8.38558 11.9537 9.56396 12.1231 10.4267 11.8142C12.331 11.1468 11.9733 9.40349 11.9733 7.86936C11.9733 6.71379 10.0795 6.71379 10.0795 7.86936C10.0795 8.34753 10.0795 8.50693 10.0795 8.9851C10.0795 9.30388 10.2163 9.95138 9.81647 10.1207C9.63761 10.2004 9.36406 10.1606 9.16416 10.1606C8.68018 10.1606 8.18566 10.1606 7.70169 10.1606C6.9652 10.1606 6.73374 10.1606 5.99725 10.1606C5.41859 10.1606 4.83993 10.1606 4.27178 10.1606C3.50373 10.1606 3.13548 10.2602 2.36743 10.1606C1.84137 10.0909 1.91501 9.65253 1.91501 9.26402C1.91501 8.6962 1.91501 8.44715 1.91501 7.87932C1.93605 6.72375 0.0422508 6.71379 0.0422508 7.86936Z" fill="#97559F"/>
</svg>
